<?xml version="1.0" encoding="UTF-8"?>
<svg xmlns="http://www.w3.org/2000/svg" xmlns:xlink="http://www.w3.org/1999/xlink"
     width="800" height="400" viewBox="-400.0 -200.0 800 400">
<defs>
</defs>
<rect x="-400" y="-200" width="800" height="400" fill="#001122" />
<path d="M-400,0.0 L-390,11.332012170863555 L-380,16.24512387847577 L-370,23.583130657314925 L-360,37.91952833367292 L-350,40.655674560126414 L-340,48.31037277462277 L-330,43.60779508142148 L-320,43.08227260009421 L-310,49.483837807129476 L-300,36.76168428120089 L-290,32.89064802977647 L-280,38.59884696780763 L-270,24.40586826226142 L-260,14.529944501586 L-250,8.33379212606011 L-240,-3.4256115375039005 L-230,-13.306716173939105 L-220,-17.830582587237824 L-210,-33.391925567889125 L-200,-42.90811044670713 L-190,-42.76168322527534 L-180,-51.78312013254723 L-170,-41.85870123967209 L-160,-49.91310028903205 L-150,-47.639701702386425 L-140,-42.355755300459805 L-130,-31.64854213995018 L-120,-37.63370027021774 L-110,-26.182237305946753 L-100,-13.51164086433914 L-90,-4.342101730933105 L-80,5.896134551468736 L-70,16.632993876599272 L-60,27.032191536716926 L-50,27.256649060386103 L-40,36.14847464283215 L-30,44.782240607951444 L-20,54.11073816755387 L-10,51.70076340067387 L0,57.074481502663275 L10,46.986650902087746 L20,39.833022961331714 L30,31.78984426562271 L40,32.001461509191465 L50,19.973357185128535 L60,12.276388853194302 L70,1.270635334350301 L80,-7.687394698521863 L90,-19.257369861556008 L100,-28.787915110649877 L110,-40.53205817266697 L120,-37.90948046669384 L130,-51.653364748471034 L140,-41.40552364558833 L150,-55.87996998293963 L160,-42.952142241547335 L170,-41.281478996716345 L180,-39.69061868664322 L190,-31.515786812082812 L200,-24.04450083285301 L210,-19.976372647100987 L220,-9.393812783168459 L230,1.5940348742599126 L240,10.640645416362181 L250,20.844596280833294 L260,32.07561731489878 L270,37.51402023987615 L280,47.82004636618466 L290,44.25642858191531 L300,59.15841794550938 L310,53.74922999255528 L320,42.31970650113684 L330,42.71587730486412 L340,42.238215821817505 L350,27.105309144504826 L360,19.65515876654966 L370,18.061578467975476 L380,5.024619072161254 L390,-5.12170182808506" fill="none" stroke="cyan" stroke-width="3" opacity="0.8" />
<path d="M-400,25.219592980205025 L-390,27.113846775575862 L-380,29.305219305254266 L-370,21.44256154890939 L-360,9.061868722866723 L-350,1.560671394069988 L-340,-7.446148158304273 L-330,-10.883096976214507 L-320,-20.805798804363064 L-310,-33.026084014690916 L-300,-37.190276469132684 L-290,-25.930528526850743 L-280,-31.709359946090768 L-270,-16.950633388800682 L-260,-16.6957445326534 L-250,-7.375483619128635 L-240,2.4078046126085195 L-230,12.77325192950649 L-220,16.396766301130025 L-210,30.473916745910962 L-200,24.440094603338135 L-190,30.066458535203118 L-180,22.70589839858688 L-170,28.04397278634181 L-160,21.991550710635472 L-150,9.40885009120267 L-140,2.0792090962164034 L-130,-8.863814901242739 L-120,-19.54612055083914 L-110,-21.837606102534714 L-100,-20.74760657971144 L-90,-36.51294247154548 L-80,-22.795144632956205 L-70,-21.591868194748862 L-60,-15.893132214549933 L-50,-11.627943009897193 L-40,-5.872251624640717 L-30,2.6694747928154863 L-20,14.070023101438043 L-10,24.150453719892752 L0,18.48559039864148 L10,27.67446215038393 L20,34.184593468951284 L30,25.77716055546805 L40,26.357972675023493 L50,21.0913181916491 L60,7.680149233456041 L70,0.8171429310413563 L80,-5.466700764737977 L90,-13.609148188886536 L100,-26.607971581086534 L110,-19.582254473356965 L120,-38.02607899606499 L130,-28.21608753698369 L140,-24.07712211057519 L150,-26.730606107314077 L160,-9.771276538562926 L170,-5.646819318595194 L180,4.575917549921465 L190,9.314589030158189 L200,20.726594401236948 L210,18.223796801747195 L220,37.48872598058493 L230,36.86258537746565 L240,34.981848439683844 L250,28.517561200849677 L260,17.43973785323927 L270,8.764049653074412 L280,0.6621326073127647 L290,-9.588321411427167 L300,-19.27686756194284 L310,-21.54327649161688 L320,-31.07106188923476 L330,-28.483767386371607 L340,-27.521622486552612 L350,-32.214578279460994 L360,-24.515766689945554 L370,-9.682558604513911 L380,-5.107448977662505 L390,4.290246117475192" fill="none" stroke="lightblue" stroke-width="2" opacity="0.6" />
<circle cx="-128.90546145545346" cy="86.71318729885627" r="6.764987008187937" fill="white" opacity="0.4" />
<circle cx="73.38625008249386" cy="162.98004857997012" r="3.175951753252978" fill="white" opacity="0.4" />
<circle cx="73.08005262831006" cy="-81.05229110838454" r="4.784136058724485" fill="white" opacity="0.4" />
<circle cx="-206.09745159399242" cy="-3.790784438914244" r="3.2444547955069796" fill="white" opacity="0.4" />
<circle cx="-3.1828239696085348" cy="161.02144312561444" r="5.753615255215722" fill="white" opacity="0.4" />
<circle cx="208.3071593852659" cy="-72.49931822876448" r="4.6574115401040554" fill="white" opacity="0.4" />
<circle cx="105.4567299968898" cy="103.0367408578125" r="3.629225218109025" fill="white" opacity="0.4" />
<circle cx="296.1896115066404" cy="145.10680324805202" r="4.334521873686695" fill="white" opacity="0.4" />
<circle cx="35.05117326207687" cy="45.146261064973515" r="6.694620159724235" fill="white" opacity="0.4" />
<circle cx="-146.48771195860084" cy="154.4804612456664" r="4.27238187262337" fill="white" opacity="0.4" />
<circle cx="-279.38350018509897" cy="178.2526114214745" r="3.6842431111077967" fill="white" opacity="0.4" />
<circle cx="281.66210405458605" cy="-31.94323598643777" r="2.3185025691625096" fill="white" opacity="0.4" />
<circle cx="89.21609087092088" cy="-127.76253058113085" r="4.134974857156187" fill="white" opacity="0.4" />
<circle cx="242.2781538061746" cy="48.909051833236845" r="4.723517749807268" fill="white" opacity="0.4" />
<circle cx="-10.279426014631667" cy="124.81052541396576" r="5.858040000434328" fill="white" opacity="0.4" />
<circle cx="-342.42232719742873" cy="-24.808719511427597" r="4.998756042259505" fill="white" opacity="0.4" />
<circle cx="249.61126762333026" cy="-6.008394024926076" r="5.3336007598087996" fill="white" opacity="0.4" />
<circle cx="196.1918011827405" cy="84.74073688666795" r="5.304250796332501" fill="white" opacity="0.4" />
<circle cx="324.2931399130274" cy="-90.20051505555772" r="6.322410185522317" fill="white" opacity="0.4" />
<circle cx="52.20430736308509" cy="4.625572567689346" r="4.718955016274139" fill="white" opacity="0.4" />
<circle cx="145.03202065084452" cy="163.28757086685135" r="4.092140814637042" fill="white" opacity="0.4" />
<circle cx="223.30710431466036" cy="-175.4240928295637" r="2.6532934341610623" fill="white" opacity="0.4" />
<circle cx="-99.11102570354791" cy="73.07143695318072" r="6.869300186256228" fill="white" opacity="0.4" />
<circle cx="299.6817986546804" cy="107.27570586851425" r="2.3121098507442577" fill="white" opacity="0.4" />
<circle cx="-135.10016780555077" cy="23.95095912294758" r="2.5574049362894984" fill="white" opacity="0.4" />
<circle cx="342.6835524789194" cy="-66.82735341494481" r="2.7836990604593135" fill="white" opacity="0.4" />
<circle cx="-67.18091091901732" cy="-137.5462592979291" r="2.9472870985774238" fill="white" opacity="0.4" />
<circle cx="-210.5935648573185" cy="-149.32404815185527" r="6.236645991972672" fill="white" opacity="0.4" />
<circle cx="120.58262235036642" cy="80.24617681729376" r="4.3190527695473" fill="white" opacity="0.4" />
<circle cx="32.898612613265925" cy="104.80051809248988" r="3.0099689152758087" fill="white" opacity="0.4" />
<circle cx="-320.1097367519918" cy="-168.40269479578376" r="2.0715705427431117" fill="white" opacity="0.4" />
<circle cx="-206.46877235100013" cy="-7.584102530604611" r="6.287505675399867" fill="white" opacity="0.4" />
<circle cx="-250.56909192411317" cy="141.598945272155" r="6.705403894834792" fill="white" opacity="0.4" />
<circle cx="-122.34856794498029" cy="-138.4564895828809" r="3.475603669447688" fill="white" opacity="0.4" />
<circle cx="-246.78313604198698" cy="158.20443111149518" r="6.820233873587646" fill="white" opacity="0.4" />
<circle cx="-278.03278668378135" cy="-156.02541848770142" r="3.5057601308237434" fill="white" opacity="0.4" />
<circle cx="210.3187336491195" cy="-114.04313178202025" r="7.447958640408713" fill="white" opacity="0.4" />
<circle cx="-23.375912890805523" cy="118.8096384218108" r="5.248529309989503" fill="white" opacity="0.4" />
<circle cx="117.69594253989283" cy="-75.86435045686228" r="3.702266046646578" fill="white" opacity="0.4" />
<circle cx="-28.527085361345883" cy="-165.3837105149017" r="3.4127269412472145" fill="white" opacity="0.4" />
<circle cx="125.88158108494565" cy="-81.30935478854224" r="5.690957387842218" fill="white" opacity="0.4" />
<circle cx="354.63441140255145" cy="-37.80510111022858" r="2.1847712321595374" fill="white" opacity="0.4" />
<circle cx="-3.5606036918778727" cy="99.10890373883325" r="2.5308545445081823" fill="white" opacity="0.4" />
<circle cx="-26.327167118039995" cy="-32.017401810363936" r="2.557644599866769" fill="white" opacity="0.4" />
<circle cx="61.84114561905153" cy="29.734189863364463" r="7.494092642882639" fill="white" opacity="0.4" />
<circle cx="-84.18547565837952" cy="-81.3706068610611" r="3.1858867187180513" fill="white" opacity="0.4" />
<circle cx="-156.84020895212583" cy="171.25029616117757" r="4.8317908688427345" fill="white" opacity="0.4" />
<circle cx="-187.5253972880749" cy="25.505823727271093" r="7.287725745617012" fill="white" opacity="0.4" />
<circle cx="298.24079578385727" cy="137.43144715470822" r="4.0636524549814705" fill="white" opacity="0.4" />
<circle cx="-224.32897646218984" cy="47.93142915559713" r="5.527921626252983" fill="white" opacity="0.4" />
<text x="0" y="150" font-size="20" fill="white" text-anchor="middle" font-family="Arial">Flowing Tides Data Visualization</text>
</svg>