<?xml version="1.0" encoding="UTF-8"?>
<svg xmlns="http://www.w3.org/2000/svg" xmlns:xlink="http://www.w3.org/1999/xlink"
     width="800" height="600" viewBox="-400.0 -300.0 800 600">
<defs>
</defs>
<rect x="-400" y="-300" width="800" height="600" fill="#001133" />
<path d="M-400,-79.14865972987054 L-395,-79.91530734718177 L-390,-79.8834676299684 L-385,-79.05345871016003 L-380,-77.43357376251892 L-375,-75.03999814197911 L-370,-71.89664766493016 L-365,-68.03492965028515 L-360,-63.49342910793225 L-355,-58.31752321007012 L-350,-52.558927897503125 L-345,-46.27518115105601 L-340,-39.529068091088654 L-335,-32.38799364932787 L-330,-24.923309081070293 L-325,-17.209599047025243 L-320,-9.323936388039492 L-315,-1.3451120387479771 L-310,6.6471522253997115 L-305,14.573000341767601 L-300,22.35323985591407 L-295,29.910133186418882 L-290,37.16817435310059 L-285,44.054843407811006 L-280,50.50133102978567 L-275,56.443226045631356 L-270,61.82115900447897 L-265,66.5813953779121 L-260,70.67637245761225 L-255,74.06517458621857 L-250,76.71394197305108 L-245,78.59620900994659 L-240,79.69316870686725 L-235,79.99386060512806 L-230,79.49528029067716 L-225,78.20240941320776 L-220,76.12816591116129 L-215,73.29327493995639 L-210,69.72606179308706 L-205,65.46216888515282 L-200,60.54419962463426 L-195,55.0212927347179 L-190,48.94863127541754 L-185,42.38689127267947 L-180,35.4016354635882 L-175,28.062658215169588 L-170,20.443288162146498 L-165,12.619655531459893 L-160,4.669931474206407 L-155,-3.3264529946632395 L-150,-11.289600644789378 L-145,-19.139946337118594 L-140,-26.799052012472373 L-135,-34.190390418706386 L-130,-41.240109745717135 L-125,-47.877771528316515 L-120,-54.03705444409208 L-115,-59.6564169741376 L-110,-64.67971230556721 L-105,-69.0567493319099 L-100,-72.74379414605454 L-95,-75.70400701499315 L-90,-77.90781047025561 L-85,-79.33318483619749 L-80,-79.9658882433204 L-75,-79.79959892832436 L-70,-78.83597839907682 L-65,-77.08465483337544 L-60,-74.5631268773781 L-55,-71.29658880491483 L-50,-67.31767878463172 L-45,-62.66615277019867 L-40,-57.38848727196182 L-35,-51.53741497901529 L-30,-45.17139787160283 L-25,-38.35404308833624 L-20,-31.153467384692043 L-15,-23.641616532907165 L-10,-15.893546463604897 L-5,-7.986673331746252 L0,0.0 L5,7.986673331746252 L10,15.893546463604897 L15,23.641616532907165 L20,31.153467384692043 L25,38.35404308833624 L30,45.17139787160283 L35,51.53741497901529 L40,57.38848727196182 L45,62.66615277019867 L50,67.31767878463172 L55,71.29658880491483 L60,74.5631268773781 L65,77.08465483337544 L70,78.83597839907682 L75,79.79959892832436 L80,79.9658882433204 L85,79.33318483619749 L90,77.90781047025561 L95,75.70400701499315 L100,72.74379414605454 L105,69.0567493319099 L110,64.67971230556721 L115,59.6564169741376 L120,54.03705444409208 L125,47.877771528316515 L130,41.240109745717135 L135,34.190390418706386 L140,26.799052012472373 L145,19.139946337118594 L150,11.289600644789378 L155,3.3264529946632395 L160,-4.669931474206407 L165,-12.619655531459893 L170,-20.443288162146498 L175,-28.062658215169588 L180,-35.4016354635882 L185,-42.38689127267947 L190,-48.94863127541754 L195,-55.0212927347179 L200,-60.54419962463426 L205,-65.46216888515282 L210,-69.72606179308706 L215,-73.29327493995639 L220,-76.12816591116129 L225,-78.20240941320776 L230,-79.49528029067716 L235,-79.99386060512806 L240,-79.69316870686725 L245,-78.59620900994659 L250,-76.71394197305108 L255,-74.06517458621857 L260,-70.67637245761225 L265,-66.5813953779121 L270,-61.82115900447897 L275,-56.443226045631356 L280,-50.50133102978567 L285,-44.054843407811006 L290,-37.16817435310059 L295,-29.910133186418882 L300,-22.35323985591407 L305,-14.573000341767601 L310,-6.6471522253997115 L315,1.3451120387479771 L320,9.323936388039492 L325,17.209599047025243 L330,24.923309081070293 L335,32.38799364932787 L340,39.529068091088654 L345,46.27518115105601 L350,52.558927897503125 L355,58.31752321007012 L360,63.49342910793225 L365,68.03492965028515 L370,71.89664766493016 L375,75.03999814197911 L380,77.43357376251892 L385,79.05345871016003 L390,79.8834676299684 L395,79.91530734718177 L400,79.14865972987054" fill="none" stroke="#00CCFF" stroke-width="4" opacity="0.8" />
<path d="M-400,52.52713048130571 L-395,56.270757060706956 L-390,58.75066374907902 L-385,59.911157188562726 L-380,59.72617519838265 L-375,58.19987207524071 L-370,55.3665252967684 L-365,51.28976572327703 L-360,46.06114858581495 L-355,39.79809735305988 L-350,32.64126665336219 L-345,24.751383475025563 L-340,16.30563758465665 L-335,7.493702227005139 L-330,-1.486525527201466 L-325,-10.433369122826013 L-320,-19.14590174096113 L-315,-27.428458682109255 L-310,-35.0950315735057 L-305,-41.97344571616008 L-300,-47.909226757409414 L-295,-52.769069851851896 L-290,-56.44383340078635 L-285,-58.850990137223974 L-280,-59.93648051038632 L-275,-59.67592674667057 L-270,-58.07518032188918 L-265,-55.17019054973824 L-260,-51.026197237713866 L-255,-45.73626554168467 L-250,-39.41919592312735 L-245,-32.21685614688071 L-240,-24.290995236995897 L-235,-15.819610942366703 L-230,-6.992952291029618 L-225,1.990752992853409 L-220,10.9297502563257 L-215,19.623288892184437 L-210,27.87613076482544 L-205,35.502934837860565 L-200,42.33241953422352 L-195,48.21120935112932 L-190,53.00727934320919 L-185,56.61292011815439 L-180,58.94715675745995 L-175,59.95756733852268 L-170,59.62146021800787 L-165,57.94638363723833 L-160,54.969956204967296 L-155,50.75902206452679 L-150,45.40814971847569 L-145,39.03750822391006 L-140,31.790168454509605 L-135,23.82889003715759 L-130,15.332466121609873 L-125,6.491708071806502 L-120,-2.4948397459974294 L-115,-11.425358841661623 L-110,-20.09928900935428 L-105,-28.32183247739296 L-100,-35.908328646237386 L-95,-42.688401167450664 L-90,-48.50978422917541 L-85,-53.24174211800251 L-80,-56.77800526124487 L-75,-59.03915681243622 L-70,-59.97441618249031 L-65,-59.56277946225531 L-60,-57.813491125031575 L-55,-54.76583641563126 L-50,-50.48825908847379 L-45,-45.076824308417564 L-40,-38.65306123426146 L-35,-31.361233735839555 L-30,-23.36510053851903 L-25,-14.844237555271377 L-20,-5.990004998809687 L-15,2.998750156240699 L-10,11.920159847703673 L-5,20.57386844732708 L0,28.76553231625218 L5,36.31118434416237 L10,43.041365453971366 L15,48.804930287362424 L20,53.47244160368612 L25,56.93907716133517 L30,59.12698379930761 L35,59.98702585136142 L40,59.49988862714812 L45,57.676512178517996 L50,54.557845609540905 L55,50.21392744790985 L60,44.74231273060322 L65,38.26588212807022 L70,30.93008230928785 L75,22.899659523139903 L80,14.354959752838946 L85,5.487878533946205 L90,-3.502448605654805 L95,-12.414118300403985 L100,-21.04699366137719 L105,-29.207198919341963 L110,-36.711473456563155 L115,-43.39128744519073 L120,-49.09662666386461 L125,-53.69936149371501 L130,-57.09612443337097 L135,-59.21063151019419 L140,-59.99539545384605 L145,-59.43279215800279 L150,-57.53545647978831 L155,-54.34599848812227 L160,-49.93604653343407 L165,-44.40463862933366 L170,-37.87599827233925 L175,-30.496744649955495 L180,-22.43259988981416 L185,-13.864667297963534 L190,-4.985364169049784 L195,4.0058994912933805 L200,12.90719928526893 L205,21.51863120956802 L210,29.64680106831649 L215,37.10916768978144 L220,43.73814240755259 L225,49.38485274069033 L230,53.92248574869762 L235,57.24913597677089 L240,59.29009403262002 L245,59.99952439835513 L250,59.361494797402905 L255,57.390333999090544 L260,54.1303100253776 L265,49.65463598651904 L270,44.0638258724468 L275,37.48343722525155 L280,30.061251387473078 L285,21.96395465174466 L290,13.373394846014754 L295,4.482497423372086 L300,-4.509067227708558 L305,-13.399367949827033 L310,-21.988747755115703 L315,-30.084307690751935 L320,-37.50423893357293 L325,-44.08190582428772 L330,-49.66958814513922 L335,-54.141798597529416 L340,-57.3981009762113 L345,-59.365365749931065 L350,-59.999412393042206 L355,-59.28600158486388 L360,-57.24115499412534 L365,-53.910795466826876 L370,-49.36971569812253 L375,-43.7198985496302 L380,-37.088226734222 L385,-29.62363330383585 L390,-21.49375693420962 L395,-12.88117712163172 L400,-3.9793138410720412" fill="none" stroke="#66DDFF" stroke-width="3" opacity="0.6" />
<path d="M-400,-26.011513606284673 L-395,-31.530082695012652 L-390,-35.79164688562017 L-385,-38.626311061971094 L-380,-39.921066108654465 L-375,-39.62429422779481 L-370,-37.74782677776419 L-365,-34.36647259425983 L-360,-29.615035598097947 L-355,-23.68294058828898 L-350,-16.806681473065638 L-345,-9.260393004061559 L-340,-1.3449218888454677 L-335,6.624167017932376 L-330,14.32917128947308 L-325,21.462916720017397 L-320,27.741003391084895 L-315,32.91314379874835 L-310,36.77314102658703 L-305,39.167109166052676 L-300,39.99960826202814 L-295,39.23744920265966 L-290,36.91101686451227 L-285,33.113058763426146 L-280,27.994987503741747 L-275,21.76084443557479 L-270,14.659165170077134 L-265,6.973071248919186 L-260,-0.9910170181343105 L-255,-8.915596564009837 L-250,-16.484739409670265 L-245,-23.396687715670467 L-240,-29.375883914964533 L-235,-34.18395632353122 L-230,-37.629222267190904 L-225,-39.57432986493527 L-220,-39.9417338149842 L-215,-38.71678688125945 L-210,-35.94832383246508 L-205,-31.746714553966108 L-200,-26.279463948751562 L-195,-19.764534045544327 L-190,-12.461654540535147 L-185,-4.661968194019746 L-180,3.3235761126998558 L-175,11.176619927957034 L-170,18.584087176550295 L-165,25.250665514892834 L-160,30.910579502239486 L-155,35.33818622880612 L-150,38.35697098652554 L-145,39.84658435343363 L-140,39.74764014533858 L-135,38.064082955580645 L-130,34.86303089654353 L-125,30.27209981231713 L-120,24.474315637708756 L-115,17.700817731794114 L-110,10.221644081073267 L-105,2.3349657371032033 L-100,-5.644800322394689 L-95,-13.399526006236187 L-90,-20.620054872858567 L-85,-27.01852722204604 L-80,-32.339856152783604 L-75,-36.37189707302727 L-70,-38.953905235127806 L-65,-39.9829441216602 L-60,-39.417989199538404 L-55,-37.281563438689055 L-50,-33.65883939231586 L-45,-28.69424363598091 L-40,-22.585698935801418 L-35,-15.576733692346025 L-30,-7.946773231802446 L-25,0.0 L-20,7.946773231802446 L-15,15.576733692346021 L-10,22.585698935801414 L-5,28.69424363598091 L0,33.65883939231586 L5,37.28156343868905 L10,39.417989199538404 L15,39.9829441216602 L20,38.953905235127806 L25,36.37189707302727 L30,32.339856152783604 L35,27.018527222046025 L40,20.620054872858567 L45,13.399526006236204 L50,5.644800322394689 L55,-2.3349657371032033 L60,-10.221644081073249 L65,-17.7008177317941 L70,-24.47431563770877 L75,-30.27209981231713 L80,-34.86303089654353 L85,-38.064082955580645 L90,-39.74764014533858 L95,-39.84658435343362 L100,-38.35697098652554 L105,-35.33818622880612 L110,-30.910579502239486 L115,-25.250665514892834 L120,-18.584087176550295 L125,-11.176619927957034 L130,-3.3235761126998558 L135,4.661968194019746 L140,12.461654540535147 L145,19.764534045544327 L150,26.279463948751562 L155,31.746714553966125 L160,35.94832383246508 L165,38.71678688125946 L170,39.9417338149842 L175,39.57432986493527 L180,37.629222267190926 L185,34.18395632353122 L190,29.37588391496449 L195,23.396687715670467 L200,16.484739409670265 L205,8.915596564009906 L210,0.9910170181343105 L215,-6.973071248919186 L220,-14.659165170077134 L225,-21.76084443557479 L230,-27.994987503741747 L235,-33.113058763426146 L240,-36.91101686451227 L245,-39.23744920265966 L250,-39.99960826202814 L255,-39.167109166052676 L260,-36.77314102658703 L265,-32.91314379874835 L270,-27.741003391084895 L275,-21.462916720017397 L280,-14.32917128947308 L285,-6.624167017932376 L290,1.3449218888454677 L295,9.260393004061559 L300,16.806681473065638 L305,23.68294058828898 L310,29.615035598097947 L315,34.36647259425983 L320,37.74782677776419 L325,39.62429422779481 L330,39.921066108654465 L335,38.626311061971094 L340,35.79164688562017 L345,31.530082695012652 L350,26.011513606284673 L355,19.455947554151926 L360,12.12473426982809 L365,4.310146091977762 L370,-3.6762740091072654 L375,-11.516132666602612 L380,-18.89687945593877 L385,-25.524267293917898 L390,-31.13408314137194 L395,-35.502681343260186 L400,-38.45589967518227" fill="none" stroke="#99EEFF" stroke-width="2" opacity="0.4" />
<circle cx="-191.59524098068079" cy="133.8438180359596" r="11.262505164003892" fill="white" opacity="0.5541185014031205" stroke="cyan" stroke-width="1" />
<circle cx="-39.74975412356406" cy="-204.6510914283434" r="6.35349986760747" fill="white" opacity="0.23315011781936534" stroke="cyan" stroke-width="1" />
<circle cx="48.9459911438629" cy="-275.1633826209737" r="7.567077685460888" fill="white" opacity="0.34307962590298446" stroke="cyan" stroke-width="1" />
<circle cx="-366.1814334301757" cy="-146.70582977503008" r="9.170843126344185" fill="white" opacity="0.3923222311661404" stroke="cyan" stroke-width="1" />
<circle cx="171.63690074063675" cy="-132.1627993209019" r="3.9105252921977938" fill="white" opacity="0.5628514821194742" stroke="cyan" stroke-width="1" />
<circle cx="-71.31793606835123" cy="65.49676863533244" r="3.3545382122275864" fill="white" opacity="0.5107504014388626" stroke="cyan" stroke-width="1" />
<circle cx="-190.2877253266143" cy="-104.20457247961517" r="5.548445489258717" fill="white" opacity="0.400782762456089" stroke="cyan" stroke-width="1" />
<circle cx="365.74151191942997" cy="207.72089948554827" r="4.477158042762612" fill="white" opacity="0.6371698461402271" stroke="cyan" stroke-width="1" />
<circle cx="65.87478690202965" cy="60.91731517191499" r="11.107888914406821" fill="white" opacity="0.42531959844685374" stroke="cyan" stroke-width="1" />
<circle cx="319.89001070433756" cy="279.3950141672974" r="7.48773703336405" fill="white" opacity="0.6990362308148822" stroke="cyan" stroke-width="1" />
<circle cx="100.83398590850777" cy="61.20995488191454" r="11.86171016707305" fill="white" opacity="0.3862196898111878" stroke="cyan" stroke-width="1" />
<circle cx="230.33328670425408" cy="26.39592548234873" r="8.032577302950777" fill="white" opacity="0.4326034252853146" stroke="cyan" stroke-width="1" />
<circle cx="212.74298708021183" cy="-235.8773017541431" r="11.69741039088816" fill="white" opacity="0.38014778806980054" stroke="cyan" stroke-width="1" />
<circle cx="-66.89594971114906" cy="-213.90198702177202" r="6.909904033607257" fill="white" opacity="0.39937464458798166" stroke="cyan" stroke-width="1" />
<circle cx="176.20467108586877" cy="-257.2138779716478" r="7.910302351612757" fill="white" opacity="0.6316234885834481" stroke="cyan" stroke-width="1" />
<circle cx="-236.43776071889016" cy="122.5758530517017" r="7.257761563095652" fill="white" opacity="0.6579246008339854" stroke="cyan" stroke-width="1" />
<circle cx="53.01643030500338" cy="-230.51150371976436" r="5.944078772659513" fill="white" opacity="0.6398701904075352" stroke="cyan" stroke-width="1" />
<circle cx="168.31536008726448" cy="37.8401024580906" r="8.672774663037163" fill="white" opacity="0.4904234064910703" stroke="cyan" stroke-width="1" />
<circle cx="89.24643062971944" cy="-34.307903601414495" r="4.032803512626822" fill="white" opacity="0.4336692682928941" stroke="cyan" stroke-width="1" />
<circle cx="83.68325307769572" cy="-166.9134397033942" r="9.493245141481733" fill="white" opacity="0.5301429995993909" stroke="cyan" stroke-width="1" />
<circle cx="339.90690369929507" cy="122.18850719638345" r="11.68256199425523" fill="white" opacity="0.6349320365697814" stroke="cyan" stroke-width="1" />
<circle cx="358.5832050462062" cy="70.51090302524682" r="9.097693982009083" fill="white" opacity="0.28133065634171206" stroke="cyan" stroke-width="1" />
<circle cx="282.7870092742245" cy="103.05217685146226" r="7.305610178565525" fill="white" opacity="0.357121258247293" stroke="cyan" stroke-width="1" />
<circle cx="202.36885853047852" cy="83.80470058216571" r="4.757700097029788" fill="white" opacity="0.5139750329717379" stroke="cyan" stroke-width="1" />
<circle cx="347.58493887088844" cy="-37.908065273009385" r="9.90567566321885" fill="white" opacity="0.320577544015378" stroke="cyan" stroke-width="1" />
<circle cx="-196.49740127619856" cy="-80.43610850225653" r="6.674347022531637" fill="white" opacity="0.4123035523783032" stroke="cyan" stroke-width="1" />
<circle cx="-37.95770609171501" cy="12.959180278395195" r="4.5446798773992665" fill="white" opacity="0.36103594703101594" stroke="cyan" stroke-width="1" />
<circle cx="138.94552484962412" cy="122.30288615004861" r="4.123802506707579" fill="white" opacity="0.28466436673996165" stroke="cyan" stroke-width="1" />
<circle cx="266.3695639796972" cy="208.57790910051693" r="8.443336460762325" fill="white" opacity="0.4382590840120888" stroke="cyan" stroke-width="1" />
<circle cx="257.5637670560452" cy="90.68734639212602" r="10.486213456430507" fill="white" opacity="0.24858486183530254" stroke="cyan" stroke-width="1" />
<text x="0" y="250" font-size="24" fill="white" text-anchor="middle" font-family="Arial" font-weight="bold">Flowing Tides Visualization</text>
<text x="0" y="220" font-size="16" fill="#CCCCCC" text-anchor="middle" font-family="Arial">Hong Kong Tides Data Flow</text>
<path d="M-50,-20 L-30,-10 L-10,-5 L10,0 L30,5 L40,0 L30,-5 L10,-10 L-10,-15 L-30,-20 Z" fill="#4488CC" opacity="0.7" stroke="#66AADD" stroke-width="2" />
<circle cx="-20" cy="-15" r="3" fill="white" />
<circle cx="-20" cy="-15" r="1" fill="black" />
</svg>